<svg width="20" height="20" viewBox="0 0 20 20" fill="none" xmlns="http://www.w3.org/2000/svg">
<path d="M1.6665 10.0007C1.6665 6.85795 1.6665 5.28661 2.64281 4.3103C3.61913 3.33398 5.19047 3.33398 8.33317 3.33398H11.6665C14.8092 3.33398 16.3805 3.33398 17.3569 4.3103C18.3332 5.28661 18.3332 6.85795 18.3332 10.0007V11.6673C18.3332 14.81 18.3332 16.3814 17.3569 17.3577C16.3805 18.334 14.8092 18.334 11.6665 18.334H8.33317C5.19047 18.334 3.61913 18.334 2.64281 17.3577C1.6665 16.3814 1.6665 14.81 1.6665 11.6673V10.0007Z" stroke="#333333" stroke-width="1.5"/>
<path d="M5.8335 3.33398V2.08398" stroke="#333333" stroke-width="1.5" stroke-linecap="round"/>
<path d="M14.1665 3.33398V2.08398" stroke="#333333" stroke-width="1.5" stroke-linecap="round"/>
<path d="M2.0835 7.5H17.9168" stroke="#333333" stroke-width="1.5" stroke-linecap="round"/>
</svg>
