<svg width="21" height="21" viewBox="0 0 21 21" fill="none" xmlns="http://www.w3.org/2000/svg">
<path d="M1.75 10.6784C1.75 8.67605 1.75 7.67487 2.2043 6.8449C2.6586 6.01493 3.48858 5.49982 5.14853 4.46961L6.89853 3.38351C8.65321 2.2945 9.53056 1.75 10.5 1.75C11.4694 1.75 12.3468 2.2945 14.1015 3.38351L15.8515 4.46961C17.5114 5.49982 18.3414 6.01493 18.7957 6.8449C19.25 7.67487 19.25 8.67605 19.25 10.6784V12.0093C19.25 15.4226 19.25 17.1293 18.2249 18.1896C17.1997 19.25 15.5498 19.25 12.25 19.25H8.75C5.45017 19.25 3.80025 19.25 2.77513 18.1896C1.75 17.1293 1.75 15.4226 1.75 12.0093V10.6784Z" stroke="#E0E0E0" stroke-width="1.5"/>
<path d="M7.875 14C8.61908 14.5515 9.52399 14.875 10.5 14.875C11.476 14.875 12.3809 14.5515 13.125 14" stroke="#E0E0E0" stroke-width="1.5" stroke-linecap="round"/>
</svg>
