<svg width="693" height="624" viewBox="0 0 693 624" fill="none" xmlns="http://www.w3.org/2000/svg">
<g clip-path="url(#clip0_21795_157107)">
<g opacity="0.1">
<path d="M476.367 700.216L107.764 0.257812L-251.705 697.928" stroke="url(#paint0_linear_21795_157107)" stroke-width="4" stroke-miterlimit="10"/>
<path d="M456.176 700.215L107.404 38.7148L-232.475 697.927" stroke="url(#paint1_linear_21795_157107)" stroke-width="4" stroke-miterlimit="10"/>
<path d="M435.985 700.218L107.043 77.1758L-213.126 697.931" stroke="url(#paint2_linear_21795_157107)" stroke-width="4" stroke-miterlimit="10"/>
<path d="M415.793 700.218L106.681 115.633L-193.777 697.93" stroke="url(#paint3_linear_21795_157107)" stroke-width="4" stroke-miterlimit="10"/>
<path d="M395.603 700.219L106.321 154.234L-174.427 697.931" stroke="url(#paint4_linear_21795_157107)" stroke-width="4" stroke-miterlimit="10"/>
<path d="M375.412 700.214L105.96 192.688L-155.078 697.927" stroke="url(#paint5_linear_21795_157107)" stroke-width="4" stroke-miterlimit="10"/>
<path d="M355.221 700.214L105.48 231.145L-135.729 697.926" stroke="url(#paint6_linear_21795_157107)" stroke-width="4" stroke-miterlimit="10"/>
<path d="M335.032 700.217L105.121 269.605L-116.378 697.929" stroke="url(#paint7_linear_21795_157107)" stroke-width="4" stroke-miterlimit="10"/>
<path d="M314.84 700.216L104.759 308.062L-97.0286 697.929" stroke="url(#paint8_linear_21795_157107)" stroke-width="4" stroke-miterlimit="10"/>
<path d="M294.65 700.216L104.399 346.52L-77.6787 697.928" stroke="url(#paint9_linear_21795_157107)" stroke-width="4" stroke-miterlimit="10"/>
<path d="M733.799 700.216L365.196 0.257812L5.60729 697.928" stroke="url(#paint10_linear_21795_157107)" stroke-width="4" stroke-miterlimit="10"/>
<path d="M713.61 700.215L364.717 38.7148L24.9582 697.927" stroke="url(#paint11_linear_21795_157107)" stroke-width="4" stroke-miterlimit="10"/>
<path d="M693.417 700.218L364.355 77.1758L44.3062 697.931" stroke="url(#paint12_linear_21795_157107)" stroke-width="4" stroke-miterlimit="10"/>
<path d="M673.228 700.218L363.996 115.633L63.5368 697.93" stroke="url(#paint13_linear_21795_157107)" stroke-width="4" stroke-miterlimit="10"/>
<path d="M653.036 700.219L363.634 154.234L82.885 697.931" stroke="url(#paint14_linear_21795_157107)" stroke-width="4" stroke-miterlimit="10"/>
<path d="M632.844 700.214L363.273 192.688L102.234 697.927" stroke="url(#paint15_linear_21795_157107)" stroke-width="4" stroke-miterlimit="10"/>
<path d="M612.655 700.214L362.913 231.145L121.585 697.926" stroke="url(#paint16_linear_21795_157107)" stroke-width="4" stroke-miterlimit="10"/>
<path d="M592.464 700.217L362.433 269.605L140.935 697.929" stroke="url(#paint17_linear_21795_157107)" stroke-width="4" stroke-miterlimit="10"/>
<path d="M572.273 700.216L362.072 308.062L160.284 697.929" stroke="url(#paint18_linear_21795_157107)" stroke-width="4" stroke-miterlimit="10"/>
<path d="M552.083 700.216L361.712 346.52L179.634 697.928" stroke="url(#paint19_linear_21795_157107)" stroke-width="4" stroke-miterlimit="10"/>
</g>
</g>
<defs>
<linearGradient id="paint0_linear_21795_157107" x1="112.331" y1="0.257812" x2="112.331" y2="700.216" gradientUnits="userSpaceOnUse">
<stop stop-color="#FAA519"/>
<stop offset="1" stop-color="#FAA519"/>
</linearGradient>
<linearGradient id="paint1_linear_21795_157107" x1="111.85" y1="38.7148" x2="111.85" y2="700.215" gradientUnits="userSpaceOnUse">
<stop stop-color="#FAA519"/>
<stop offset="1" stop-color="#FAA519"/>
</linearGradient>
<linearGradient id="paint2_linear_21795_157107" x1="111.429" y1="77.1758" x2="111.429" y2="700.218" gradientUnits="userSpaceOnUse">
<stop stop-color="#FAA519"/>
<stop offset="1" stop-color="#FAA519"/>
</linearGradient>
<linearGradient id="paint3_linear_21795_157107" x1="111.008" y1="115.633" x2="111.008" y2="700.218" gradientUnits="userSpaceOnUse">
<stop stop-color="#FAA519"/>
<stop offset="1" stop-color="#FAA519"/>
</linearGradient>
<linearGradient id="paint4_linear_21795_157107" x1="110.588" y1="154.234" x2="110.588" y2="700.219" gradientUnits="userSpaceOnUse">
<stop stop-color="#FAA519"/>
<stop offset="1" stop-color="#FAA519"/>
</linearGradient>
<linearGradient id="paint5_linear_21795_157107" x1="110.167" y1="192.688" x2="110.167" y2="700.214" gradientUnits="userSpaceOnUse">
<stop stop-color="#FAA519"/>
<stop offset="1" stop-color="#FAA519"/>
</linearGradient>
<linearGradient id="paint6_linear_21795_157107" x1="109.746" y1="231.145" x2="109.746" y2="700.214" gradientUnits="userSpaceOnUse">
<stop stop-color="#FAA519"/>
<stop offset="1" stop-color="#FAA519"/>
</linearGradient>
<linearGradient id="paint7_linear_21795_157107" x1="109.327" y1="269.605" x2="109.327" y2="700.217" gradientUnits="userSpaceOnUse">
<stop stop-color="#FAA519"/>
<stop offset="1" stop-color="#FAA519"/>
</linearGradient>
<linearGradient id="paint8_linear_21795_157107" x1="108.906" y1="308.062" x2="108.906" y2="700.216" gradientUnits="userSpaceOnUse">
<stop stop-color="#FAA519"/>
<stop offset="1" stop-color="#FAA519"/>
</linearGradient>
<linearGradient id="paint9_linear_21795_157107" x1="108.486" y1="346.52" x2="108.486" y2="700.216" gradientUnits="userSpaceOnUse">
<stop stop-color="#FAA519"/>
<stop offset="1" stop-color="#FAA519"/>
</linearGradient>
<linearGradient id="paint10_linear_21795_157107" x1="369.703" y1="0.257812" x2="369.703" y2="700.216" gradientUnits="userSpaceOnUse">
<stop stop-color="#FAA519"/>
<stop offset="1" stop-color="#FAA519"/>
</linearGradient>
<linearGradient id="paint11_linear_21795_157107" x1="369.284" y1="38.7148" x2="369.284" y2="700.215" gradientUnits="userSpaceOnUse">
<stop stop-color="#FAA519"/>
<stop offset="1" stop-color="#FAA519"/>
</linearGradient>
<linearGradient id="paint12_linear_21795_157107" x1="368.862" y1="77.1758" x2="368.862" y2="700.218" gradientUnits="userSpaceOnUse">
<stop stop-color="#FAA519"/>
<stop offset="1" stop-color="#FAA519"/>
</linearGradient>
<linearGradient id="paint13_linear_21795_157107" x1="368.382" y1="115.633" x2="368.382" y2="700.218" gradientUnits="userSpaceOnUse">
<stop stop-color="#FAA519"/>
<stop offset="1" stop-color="#FAA519"/>
</linearGradient>
<linearGradient id="paint14_linear_21795_157107" x1="367.96" y1="154.234" x2="367.96" y2="700.219" gradientUnits="userSpaceOnUse">
<stop stop-color="#FAA519"/>
<stop offset="1" stop-color="#FAA519"/>
</linearGradient>
<linearGradient id="paint15_linear_21795_157107" x1="367.539" y1="192.688" x2="367.539" y2="700.214" gradientUnits="userSpaceOnUse">
<stop stop-color="#FAA519"/>
<stop offset="1" stop-color="#FAA519"/>
</linearGradient>
<linearGradient id="paint16_linear_21795_157107" x1="367.12" y1="231.145" x2="367.12" y2="700.214" gradientUnits="userSpaceOnUse">
<stop stop-color="#FAA519"/>
<stop offset="1" stop-color="#FAA519"/>
</linearGradient>
<linearGradient id="paint17_linear_21795_157107" x1="366.7" y1="269.605" x2="366.7" y2="700.217" gradientUnits="userSpaceOnUse">
<stop stop-color="#FAA519"/>
<stop offset="1" stop-color="#FAA519"/>
</linearGradient>
<linearGradient id="paint18_linear_21795_157107" x1="366.278" y1="308.062" x2="366.278" y2="700.216" gradientUnits="userSpaceOnUse">
<stop stop-color="#FAA519"/>
<stop offset="1" stop-color="#FAA519"/>
</linearGradient>
<linearGradient id="paint19_linear_21795_157107" x1="365.858" y1="346.52" x2="365.858" y2="700.216" gradientUnits="userSpaceOnUse">
<stop stop-color="#FAA519"/>
<stop offset="1" stop-color="#FAA519"/>
</linearGradient>
<clipPath id="clip0_21795_157107">
<path d="M693 0H0V614C0 619.523 4.47717 624 10 624H693V0Z" fill="white"/>
</clipPath>
</defs>
</svg>
