<svg width="110" height="110" viewBox="0 0 110 110" fill="none" xmlns="http://www.w3.org/2000/svg">
<path d="M43.4824 24.1703C42.9252 24.1703 42.384 23.8818 42.086 23.3644L31.287 4.64968C30.7716 3.75681 29.8504 3.22496 28.8196 3.22335C27.7888 3.22335 26.8675 3.75681 26.3521 4.64968L20.4042 14.9596C19.9597 15.7299 18.974 15.9943 18.2041 15.5494C17.4343 15.1046 17.1701 14.1183 17.6147 13.3479L23.5626 3.03801C24.661 1.13623 26.6259 0 28.8196 0C31.0148 0 32.9797 1.13623 34.0766 3.03801L44.874 21.7528C45.3185 22.5232 45.0544 23.5095 44.2845 23.9543C44.0316 24.101 43.7546 24.1703 43.4808 24.1703H43.4824Z" fill="#E0E0E0"/>
<path d="M39.8634 51.5639H6.07959C3.88435 51.5639 1.91943 50.4293 0.822611 48.5275C-0.274204 46.6257 -0.274204 44.3549 0.822611 42.4531L13.9941 19.6237C14.4386 18.8534 15.4243 18.5891 16.1941 19.0339C16.964 19.4787 17.2281 20.465 16.7836 21.2354L3.61216 44.0632C3.09677 44.956 3.09677 46.0214 3.61216 46.9142C4.12755 47.8071 5.04881 48.339 6.07959 48.339H39.8634C40.7525 48.339 41.474 49.061 41.474 49.9506C41.474 50.8403 40.7525 51.5623 39.8634 51.5623V51.5639Z" fill="#E0E0E0"/>
<path d="M31.01 40.8801C31.01 42.0905 30.0291 43.0704 28.8212 43.0704C27.6132 43.0704 26.6324 42.0889 26.6324 40.8801C26.6324 39.6714 27.6132 38.6899 28.8212 38.6899C30.0291 38.6899 31.01 39.6698 31.01 40.8801Z" fill="#E0E0E0"/>
<path d="M28.8437 33.9709C27.9547 33.9709 27.2331 33.2488 27.2331 32.3592V14.1537C27.2331 13.2641 27.9547 12.5421 28.8437 12.5421C29.7328 12.5421 30.4543 13.2641 30.4543 14.1537V32.3592C30.4543 33.2488 29.7328 33.9709 28.8437 33.9709Z" fill="#E0E0E0"/>
<path d="M61.4212 64.6878C52.9141 64.6878 44.5792 60.4942 39.654 52.813C31.9683 40.8253 35.4617 24.815 47.4413 17.124C59.4209 9.43313 75.4205 12.9289 83.1079 24.9165C90.7936 36.9041 87.3003 52.9145 75.3207 60.6054C71.0171 63.3678 66.1918 64.6878 61.4228 64.6878H61.4212ZM61.3439 16.2634C57.1693 16.2634 52.9479 17.4174 49.1807 19.8365C38.6957 26.5685 35.6388 40.5804 42.3647 51.0724C49.0921 61.5644 63.0946 64.6233 73.5796 57.8913C84.0646 51.161 87.1199 37.1475 80.3956 26.6555C76.0857 19.9332 68.7897 16.2618 61.3439 16.2618V16.2634Z" fill="#E0E0E0"/>
<path d="M61.4164 57.2467C60.1021 57.2467 58.7782 57.1049 57.4624 56.818C52.6709 55.7704 48.5719 52.9193 45.9241 48.7886C43.2747 44.6579 42.3921 39.7407 43.4389 34.9459C44.4858 30.1512 47.335 26.0495 51.4629 23.3999C55.5909 20.7487 60.5032 19.8671 65.2963 20.9131C70.0878 21.9607 74.1868 24.8117 76.8346 28.9425C79.484 33.0732 80.3666 37.9904 79.3198 42.7851C78.2729 47.5799 75.4237 51.6816 71.2958 54.3312C68.3001 56.2539 64.8921 57.2467 61.4164 57.2467ZM61.3504 23.7061C58.4835 23.7061 55.673 24.5249 53.204 26.1107C49.7992 28.2962 47.4493 31.6775 46.5877 35.6325C45.726 39.5876 46.4524 43.6409 48.6363 47.048C50.8203 50.4551 54.1993 52.8065 58.1517 53.6688C62.1025 54.5326 66.1548 53.8041 69.5596 51.6187C72.9644 49.4333 75.3142 46.052 76.1759 42.0969C77.0392 38.1419 76.3112 34.0885 74.1272 30.6814C71.9432 27.2744 68.5642 24.9229 64.6118 24.0607C63.5279 23.8238 62.4359 23.7061 61.352 23.7061H61.3504Z" fill="#E0E0E0"/>
<path d="M80.0784 69.6356C79.5485 69.6356 79.0282 69.3745 78.7206 68.8942L73.0948 60.1187C72.6149 59.3692 72.8323 58.3732 73.5812 57.8913C74.3301 57.4111 75.3255 57.6286 75.8071 58.3781L81.4329 67.1536C81.9128 67.9031 81.6954 68.8991 80.9465 69.381C80.6775 69.5534 80.3763 69.6356 80.0784 69.6356Z" fill="#E0E0E0"/>
<path d="M102.699 109.998C102.176 109.998 101.649 109.942 101.124 109.828C99.2154 109.41 97.5839 108.276 96.529 106.63L75.1709 73.9259C73.9984 72.0983 74.5282 69.6711 76.3434 68.5058L82.069 64.8296C83.8842 63.6644 86.3081 64.193 87.4742 66.011L98.6308 83.0947C99.1172 83.8393 98.9078 84.8385 98.1637 85.3253C97.4196 85.812 96.4211 85.6025 95.9347 84.8579L84.7716 67.7645C84.559 67.4325 84.1306 67.339 83.8101 67.5453L78.0844 71.2215C77.7639 71.4278 77.6705 71.8549 77.8767 72.1756L99.2348 104.878C99.8323 105.81 100.745 106.446 101.813 106.678C102.881 106.91 103.976 106.715 104.896 106.124C105.816 105.534 106.452 104.62 106.684 103.552C106.917 102.483 106.721 101.387 106.13 100.467L100.042 91.145C99.5553 90.4004 99.7646 89.4012 100.509 88.9145C101.253 88.4277 102.251 88.6373 102.738 89.3819L108.832 98.7151C109.894 100.372 110.246 102.33 109.829 104.24C109.412 106.15 108.278 107.782 106.634 108.838C105.44 109.604 104.084 110 102.699 110V109.998Z" fill="#E0E0E0"/>
<path d="M59.9427 34.4721H55.8357C54.9466 34.4721 54.2251 33.7501 54.2251 32.8604C54.2251 31.9708 54.9466 31.2488 55.8357 31.2488H59.9427C60.8317 31.2488 61.5533 31.9708 61.5533 32.8604C61.5533 33.7501 60.8317 34.4721 59.9427 34.4721Z" fill="#E0E0E0"/>
<path d="M66.9262 40.4772H55.8357C54.9466 40.4772 54.2251 39.7552 54.2251 38.8655C54.2251 37.9759 54.9466 37.2539 55.8357 37.2539H66.9262C67.8153 37.2539 68.5368 37.9759 68.5368 38.8655C68.5368 39.7552 67.8153 40.4772 66.9262 40.4772Z" fill="#E0E0E0"/>
<path d="M66.9262 46.4807H55.8357C54.9466 46.4807 54.2251 45.7587 54.2251 44.869C54.2251 43.9794 54.9466 43.2573 55.8357 43.2573H66.9262C67.8153 43.2573 68.5368 43.9794 68.5368 44.869C68.5368 45.7587 67.8153 46.4807 66.9262 46.4807Z" fill="#E0E0E0"/>
<path d="M83.7811 85.7733C83.2544 85.7733 82.7407 85.5154 82.4314 85.0432L78.4355 78.9269C78.1988 78.5643 78.1183 78.1211 78.2101 77.6972C78.3035 77.2733 78.5628 76.9059 78.93 76.677L88.6129 70.6365C89.357 70.1723 90.3346 70.3883 90.813 71.1232L94.8056 77.2395C95.0424 77.6021 95.1229 78.0453 95.0295 78.4676C94.9361 78.8915 94.6768 79.2589 94.3096 79.4878L84.6299 85.5283C84.3641 85.6943 84.071 85.7733 83.7795 85.7733H83.7811ZM82.032 78.5417L84.2643 81.9585L91.2108 77.6231L88.9801 74.2063L82.032 78.5417Z" fill="#E0E0E0"/>
</svg>
